<?xml version="1.0" encoding="utf-8"?>
<!-- Uploaded to: SVG Repo, www.svgrepo.com, Generator: SVG Repo Mixer Tools -->
<svg width="800px" height="800px" viewBox="0 0 64 64" xmlns="http://www.w3.org/2000/svg">
<title>bull-fighting</title>
<g id="bull-fighting">
<circle cx="32" cy="32" r="23" style="fill:#e5efef"/>
<line x1="22" y1="3" x2="22" y2="5" style="fill:none;stroke:#4c241d;stroke-linecap:round;stroke-linejoin:round;stroke-width:2px"/>
<line x1="22" y1="9" x2="22" y2="11" style="fill:none;stroke:#4c241d;stroke-linecap:round;stroke-linejoin:round;stroke-width:2px"/>
<line x1="18" y1="7" x2="20" y2="7" style="fill:none;stroke:#4c241d;stroke-linecap:round;stroke-linejoin:round;stroke-width:2px"/>
<line x1="24" y1="7" x2="26" y2="7" style="fill:none;stroke:#4c241d;stroke-linecap:round;stroke-linejoin:round;stroke-width:2px"/>
<path d="M40.082,4.667A1.069,1.069,0,1,1,39.013,3.6,1.07,1.07,0,0,1,40.082,4.667Z" style="fill:#4c241d"/>
<path d="M42.117,13.459l11.6,3.865a4.4,4.4,0,0,1,2.936,3.385l5.161,28.385a2.7,2.7,0,0,1-3.565,3.027l-4.523-1.616a9.765,9.765,0,0,0-4.885-.435l-1.174.2a9.443,9.443,0,0,1-9.407-4.076h0a12.119,12.119,0,0,0-8.58-5.3l-.959-.12-3.231-10.5L37.349,14.911A4.305,4.305,0,0,1,42.117,13.459Z" style="fill:#f53e28;stroke:#4c241d;stroke-linecap:round;stroke-linejoin:round;stroke-width:2px"/>
<line x1="42" y1="27" x2="34.361" y2="42.162" style="fill:#f53e28;stroke:#4c241d;stroke-linecap:round;stroke-linejoin:round;stroke-width:2px"/>
<path d="M6,58.758V55L5,51l3-5L4.442,41.934A4.585,4.585,0,0,1,5.349,35.1l3.376-2.25a31.409,31.409,0,0,0,6.619-5.877C16.281,25.859,17.5,24.5,19,23q.491-.491.941-.9a9.666,9.666,0,0,1,8.568-2.345L39,22l3.553,6.218a1.683,1.683,0,0,1,.044,1.588L42,31l2,4-3,2-2-1-2.872-.718A2.81,2.81,0,0,1,34.4,34L32,30v5l3,6-6,5-.136-.091a2.517,2.517,0,0,1-.176-4.059L31,40l-5-2-7,1a7.875,7.875,0,0,1-4,8v6l3,6H14.163a.242.242,0,0,1-.224-.152L12,54V49L9,53l1,6H6.241A.241.241,0,0,1,6,58.758Z" style="fill:#6b4f5b;stroke:#4c241d;stroke-linecap:round;stroke-linejoin:round;stroke-width:2px"/>
<path d="M23,32s0,5,3,6" style="fill:none;stroke:#4c241d;stroke-linecap:round;stroke-linejoin:round;stroke-width:2px"/>
<path d="M19,39a12.512,12.512,0,0,0-2-4" style="fill:none;stroke:#4c241d;stroke-linecap:round;stroke-linejoin:round;stroke-width:2px"/>
<path d="M37.244,23.244l.008.008a1.5,1.5,0,0,0,2.373-.377A6.014,6.014,0,0,1,44,20s-2.4-1.6-6.487.926A1.491,1.491,0,0,0,37.244,23.244Z" style="fill:#ffffff;stroke:#4c241d;stroke-linecap:round;stroke-linejoin:round;stroke-width:2px"/>
<path d="M5,35S2.343,26.828,8,24c8-4,5-10,2-11" style="fill:none;stroke:#4c241d;stroke-linecap:round;stroke-linejoin:round;stroke-width:2px"/>
<path d="M10.473,11.132A2,2,0,1,1,7.66,13.977C6.875,13.2,5.511,9.039,5.511,9.039S9.687,10.356,10.473,11.132Z" style="fill:#f53e28;stroke:#4c241d;stroke-linecap:round;stroke-linejoin:round;stroke-width:2px"/>
<line x1="50.857" y1="49.95" x2="51" y2="39" style="fill:#f53e28;stroke:#4c241d;stroke-linecap:round;stroke-linejoin:round;stroke-width:2px"/>
</g>
</svg>