<?xml version="1.0" encoding="iso-8859-1"?>
<!-- Uploaded to: SVG Repo, www.svgrepo.com, Generator: SVG Repo Mixer Tools -->
<svg version="1.1" id="Layer_1" xmlns="http://www.w3.org/2000/svg" xmlns:xlink="http://www.w3.org/1999/xlink" 
	 viewBox="0 0 512 512" xml:space="preserve">
<circle style="fill:#273B7A;" cx="256" cy="256" r="256"/>
<path style="fill:#121149;" d="M508.513,298.23L406.118,195.836L267.423,256.8l-81.067-81.067l-54.563,88.973l25.543,25.543
	l-62.135,73.116l148.328,148.328c4.132,0.198,8.289,0.307,12.469,0.307C382.998,512,488.377,419.518,508.513,298.23z"/>
<path style="fill:#FFFFFF;" d="M179.724,366.502h-77.417c-5.329,0-9.647-4.318-9.647-9.647V182.727c0-5.329,4.318-9.647,9.647-9.647
	h77.417c5.329,0,9.647,4.318,9.647,9.647v174.128C189.371,362.184,185.053,366.502,179.724,366.502z"/>
<path style="fill:#D0D1D3;" d="M179.724,173.08h-38.507v193.422h38.507c5.329,0,9.647-4.318,9.647-9.647V182.727
	C189.371,177.399,185.053,173.08,179.724,173.08z"/>
<g>
	<rect x="104.748" y="197.249" style="fill:#A6A8AA;" width="72.542" height="24.186"/>
	<rect x="104.748" y="234.262" style="fill:#A6A8AA;" width="72.542" height="24.186"/>
</g>
<g>
	<rect x="141.217" y="197.249" style="fill:#808183;" width="36.064" height="24.186"/>
	<rect x="141.217" y="234.262" style="fill:#808183;" width="36.064" height="24.186"/>
</g>
<circle style="fill:#6CAF5F;" cx="141.015" cy="306.062" r="7.327"/>
<path style="fill:#477F3C;" d="M148.342,306.057c0-3.977-3.174-7.197-7.125-7.306v14.612
	C145.168,313.254,148.342,310.036,148.342,306.057z"/>
<circle style="fill:#6CAF5F;" cx="141.015" cy="328.404" r="7.327"/>
<path style="fill:#477F3C;" d="M148.342,328.404c0-3.977-3.174-7.197-7.125-7.306v14.614
	C145.168,335.601,148.342,332.381,148.342,328.404z"/>
<rect x="266.343" y="331.162" style="fill:#A6A8AA;" width="85.333" height="28.444"/>
<rect x="309.734" y="331.162" style="fill:#808183;" width="41.948" height="28.444"/>
<path style="fill:#38C6D9;" d="M395.786,331.162H222.234c-5.392,0-9.762-4.372-9.762-9.762V205.6c0-5.392,4.372-9.762,9.762-9.762
	h173.551c5.392,0,9.762,4.372,9.762,9.762v115.8C405.549,326.79,401.177,331.162,395.786,331.162z"/>
<path style="fill:#02B2B2;" d="M395.786,195.836h-86.057v135.327h86.057c5.392,0,9.762-4.372,9.762-9.762V205.6
	C405.549,200.206,401.177,195.836,395.786,195.836z"/>
<path style="fill:#FFFFFF;" d="M395.786,335.632H222.234c-7.849,0-14.234-6.385-14.234-14.234v-115.8
	c0-7.851,6.385-14.236,14.234-14.236h173.553c7.849,0,14.234,6.385,14.234,14.236v115.8
	C410.021,329.247,403.635,335.632,395.786,335.632z M222.234,200.306c-2.917,0-5.291,2.374-5.291,5.292v115.8
	c0,2.917,2.374,5.291,5.291,5.291h173.553c2.917,0,5.291-2.374,5.291-5.291v-115.8c0-2.919-2.374-5.292-5.291-5.292L222.234,200.306
	L222.234,200.306z"/>
<path style="fill:#D0D1D3;" d="M395.786,191.364h-86.057v8.944h86.057c2.917,0,5.291,2.374,5.291,5.292v115.8
	c0,2.917-2.374,5.291-5.291,5.291h-86.057v8.944h86.057c7.849,0,14.234-6.385,14.234-14.234V205.6
	C410.021,197.749,403.635,191.364,395.786,191.364z"/>
<path style="fill:#808183;" d="M259.879,366.502h98.263c4.284,0,7.758-3.474,7.758-7.758l0,0c0-4.284-3.474-7.758-7.758-7.758
	h-98.263c-4.284,0-7.758,3.474-7.758,7.758l0,0C252.121,363.029,255.595,366.502,259.879,366.502z"/>
<path style="fill:#59595B;" d="M358.141,350.987h-48.412v15.515h48.412c4.284,0,7.758-3.474,7.758-7.758
	S362.425,350.987,358.141,350.987z"/>
</svg>