<?xml version="1.0" encoding="iso-8859-1"?>
<!-- Uploaded to: SVG Repo, www.svgrepo.com, Generator: SVG Repo Mixer Tools -->
<svg height="800px" width="800px" version="1.1" id="Layer_1" xmlns="http://www.w3.org/2000/svg" xmlns:xlink="http://www.w3.org/1999/xlink" 
	 viewBox="0 0 512 512" xml:space="preserve">
<path style="fill:#57545C;" d="M259.246,44.547c64.619-11.5,133.633,7.716,183.564,57.647
	c72.152,72.152,80.166,184.157,24.039,265.161l-111.094,80.866c-32.403,9.721-66.709,11.37-99.757,4.946L259.246,44.547z"/>
<g>
	<path style="fill:#781900;" d="M352.928,405.562v28.538c0,20.206,16.38,36.585,36.585,36.585h114.173
		c-20.206,0-36.585-16.38-36.585-36.585h0.185V188.564c0-44.017-35.682-79.699-79.699-79.699h-15.435L352.928,405.562z"/>
	<path style="fill:#781900;" d="M467.287,188.564c0-9.66-1.72-18.916-4.868-27.484h-93.649l-2.803,43.256h101.321V188.564z"/>
</g>
<g>
	<polygon style="fill:#FF5023;" points="467.287,204.336 365.966,204.336 363.061,249.159 467.287,249.159 	"/>
	<path style="fill:#FF5023;" d="M387.587,108.865h-15.435l-3.383,52.216h93.649C451.222,130.606,421.944,108.865,387.587,108.865z"
		/>
</g>
<polygon style="fill:#781900;" points="467.287,249.159 363.061,249.159 360.081,295.168 467.287,295.168 "/>
<polygon style="fill:#FF5023;" points="467.287,379.759 354.6,379.759 352.928,405.562 352.928,422.384 467.287,422.384 "/>
<g>
	<path style="fill:#781900;" d="M467.101,434.098h0.186v-11.714H352.928v11.714c0,20.206,16.38,36.585,36.585,36.585h114.173
		C483.481,470.683,467.101,454.304,467.101,434.098z"/>
	<polygon style="fill:#781900;" points="467.287,337.76 357.321,337.76 354.6,379.759 467.287,379.759 	"/>
</g>
<polygon style="fill:#FF5023;" points="467.287,295.168 360.081,295.168 357.321,337.76 467.287,337.76 "/>
<path style="fill:#D7D5D9;" d="M216.054,41.318c114.787,0,207.841,93.054,207.841,207.841S330.842,457,216.054,457
	S8.212,363.946,8.212,249.159c0-87.663,54.273-162.652,131.052-193.195C139.264,55.964,178.49,41.318,216.054,41.318z"/>
<g>
	<path style="opacity:0.19;fill:#57545C;enable-background:new    ;" d="M342.193,84.227c26.905,35.035,42.91,78.879,42.91,126.467
		c0,114.787-93.054,207.841-207.841,207.841c-47.588,0-91.431-16.005-126.467-42.91C88.787,425.1,148.526,457,215.726,457
		c114.787,0,207.841-93.054,207.841-207.841C423.567,181.959,391.666,122.22,342.193,84.227z"/>
	<path style="fill:#57545C;" d="M234.599,167.484l-18.545,16.035l-18.545-16.035c-8.294-7.172-13.606-17.187-14.89-28.077
		l-6.453-54.713h79.776l-6.453,54.713C248.205,150.296,242.894,160.312,234.599,167.484z"/>
	<path style="fill:#57545C;" d="M197.508,330.834l18.545-16.035l18.545,16.035c8.294,7.172,13.606,17.187,14.89,28.077l6.452,54.713
		h-79.775l6.452-54.713C183.902,348.021,189.214,338.006,197.508,330.834z"/>
	<path style="fill:#57545C;" d="M134.379,230.614l16.035,18.545l-16.035,18.545c-7.172,8.294-17.187,13.606-28.077,14.89
		l-54.713,6.453V209.27l54.713,6.452C117.192,217.007,127.206,222.318,134.379,230.614z"/>
	<path style="fill:#57545C;" d="M299.366,267.704l-16.035-18.545l16.035-18.545c7.172-8.294,17.187-13.606,28.077-14.89
		l54.713-6.453v79.776l-54.713-6.453C316.554,281.31,306.538,275.998,299.366,267.704z"/>
</g>
<g>
	<path style="fill:#781900;" d="M134.379,230.614c-7.172-8.294-17.187-13.606-28.077-14.89l-10.314-1.216
		c-3.17,11.003-4.868,22.629-4.868,34.652s1.698,23.65,4.868,34.652l10.314-1.216c10.889-1.284,20.905-6.596,28.077-14.89
		l16.035-18.545L134.379,230.614z"/>
	<path style="fill:#781900;" d="M197.508,330.834c-8.294,7.172-13.606,17.187-14.89,28.077l-1.216,10.314
		c11.003,3.17,22.629,4.868,34.652,4.868s23.65-1.698,34.652-4.868l-1.216-10.314c-1.284-10.889-6.596-20.905-14.89-28.077
		l-18.545-16.035L197.508,330.834z"/>
	<path style="fill:#781900;" d="M234.599,167.484c8.294-7.172,13.606-17.187,14.89-28.077l1.216-10.314
		c-11.003-3.17-22.629-4.868-34.652-4.868s-23.65,1.698-34.652,4.868l1.216,10.314c1.284,10.889,6.596,20.905,14.89,28.077
		l18.545,16.035L234.599,167.484z"/>
	<path style="fill:#781900;" d="M299.366,267.705c7.172,8.294,17.187,13.606,28.077,14.89l10.314,1.216
		c3.17-11.003,4.868-22.629,4.868-34.652s-1.698-23.65-4.868-34.652l-10.314,1.216c-10.889,1.284-20.905,6.596-28.077,14.89
		l-16.035,18.545L299.366,267.705z"/>
</g>
<circle style="fill:#57545C;" cx="216.054" cy="249.156" r="21.127"/>
<path d="M216.053,219.82c-16.177,0-29.339,13.162-29.339,29.339s13.162,29.338,29.339,29.338s29.339-13.161,29.339-29.338
	S232.231,219.82,216.053,219.82z M216.053,262.073c-7.122,0-12.915-5.793-12.915-12.914c0-7.122,5.793-12.915,12.915-12.915
	s12.915,5.793,12.915,12.915C228.968,256.279,223.175,262.073,216.053,262.073z"/>
<path d="M174.463,140.368c1.529,12.958,7.805,24.794,17.675,33.327l18.546,16.037c1.542,1.334,3.456,2,5.371,2
	c1.915,0,3.829-0.667,5.371-2l18.546-16.035c9.87-8.534,16.146-20.37,17.675-33.327l6.454-54.714c0.275-2.33-0.46-4.666-2.018-6.419
	c-1.559-1.753-3.792-2.756-6.137-2.756h-79.779c-2.346,0-4.579,1.003-6.137,2.756c-1.558,1.754-2.293,4.089-2.018,6.419
	L174.463,140.368z M229.229,161.271C229.229,161.272,229.229,161.272,229.229,161.271l-13.174,11.392l-13.174-11.392
	c-6.76-5.844-11.059-13.951-12.106-22.826l-0.373-3.165c8.38-1.878,16.978-2.842,25.653-2.842c9.826,0,16.139,1.149,25.536,3.836
	l-0.256,2.173C240.286,147.319,235.988,155.427,229.229,161.271z M246.705,92.905l-3.167,26.851
	c-8.289-2.263-16.189-3.745-27.484-3.745c-9.314,0-18.556,0.966-27.587,2.869l-3.064-25.976h61.302V92.905z"/>
<path d="M176.165,421.836h79.776c2.346,0,4.579-1.003,6.137-2.756c1.558-1.754,2.293-4.089,2.018-6.419l-6.454-54.712
	c-1.529-12.959-7.805-24.795-17.675-33.328l-18.546-16.037c-3.083-2.667-7.658-2.667-10.743,0l-18.546,16.035
	c-9.87,8.534-16.146,20.37-17.675,33.328l-1.232,10.446c-0.008,0.072-0.02,0.146-0.025,0.217l-5.195,44.05
	c-0.275,2.33,0.46,4.666,2.018,6.419C171.586,420.833,173.819,421.836,176.165,421.836z M185.402,405.412l3.064-25.976
	c9.033,1.903,18.276,2.869,27.587,2.869c9.314,0,18.556-0.966,27.587-2.869l3.064,25.976H185.402z M202.879,337.047
	C202.879,337.046,202.879,337.046,202.879,337.047l13.174-11.392l13.174,11.392c6.759,5.844,11.059,13.951,12.106,22.827
	l0.373,3.164c-8.38,1.878-16.978,2.842-25.653,2.842c-8.674,0-17.272-0.964-25.653-2.842l0.373-3.167
	C191.821,350.997,196.12,342.89,202.879,337.047z"/>
<path d="M303.099,224.401c-3.43-2.965-8.616-2.59-11.583,0.842l-16.035,18.546c-2.667,3.083-2.666,7.658,0.001,10.742l16.035,18.546
	c8.535,9.87,20.37,16.146,33.327,17.675l54.714,6.454c0.322,0.038,0.643,0.057,0.962,0.057c2,0,3.945-0.731,5.456-2.075
	c1.753-1.559,2.756-3.792,2.756-6.137v-79.776c0-2.329-0.988-4.547-2.719-6.104c-1.73-1.556-4.035-2.307-6.358-2.062l-49.414,5.233
	c-4.51,0.477-7.778,4.521-7.301,9.031c0.395,3.743,3.243,6.623,6.782,7.224c2.017,8.669,3.054,17.576,3.054,26.566
	c0,8.673-0.965,17.272-2.842,25.653l-3.167-0.373c-8.873-1.047-16.98-5.347-22.827-12.107l-11.39-13.173l11.391-13.174
	C306.907,232.554,306.531,227.368,303.099,224.401z M346.246,221.158l26.062-2.76v61.412l-25.976-3.064
	c1.903-9.033,2.87-18.276,2.87-27.587C349.2,239.704,348.207,230.321,346.246,221.158z"/>
<path d="M107.263,207.567l-54.713-6.452c-2.331-0.283-4.664,0.46-6.417,2.018c-1.753,1.559-2.756,3.792-2.756,6.137v79.777
	c0,2.346,1.003,4.579,2.756,6.137c1.512,1.343,3.456,2.075,5.456,2.075c0.32,0,0.641-0.019,0.962-0.057l44.553-5.255
	c0.009-0.001,0.016-0.001,0.025-0.003l10.134-1.196c12.958-1.529,24.795-7.805,33.328-17.676l16.037-18.545
	c2.668-3.083,2.668-7.658,0-10.743l-16.037-18.543C132.057,215.372,120.22,209.095,107.263,207.567z M59.8,218.508l25.976,3.063
	c-1.903,9.032-2.869,18.274-2.869,27.588c0,9.314,0.966,18.556,2.869,27.587L59.8,279.81C59.8,279.81,59.8,218.508,59.8,218.508z
	 M128.166,262.332c-5.845,6.76-13.952,11.06-22.827,12.107l-3.165,0.373c-1.878-8.38-2.842-16.977-2.842-25.653
	c0-8.676,0.965-17.274,2.842-25.655l3.165,0.373c8.873,1.047,16.981,5.347,22.826,12.107c0.001,0,0.001,0,0.001,0l11.391,13.174
	L128.166,262.332z"/>
<path d="M503.686,462.472c-15.138,0-27.543-11.917-28.332-26.862c0.091-0.491,0.145-0.994,0.145-1.512v-9.963
	c0.123-0.565,0.192-1.15,0.192-1.751s-0.069-1.186-0.192-1.751v-39.122c0.123-0.565,0.192-1.15,0.192-1.751
	s-0.069-1.186-0.192-1.751v-8.784c57.303-85.504,46.241-199.718-26.881-272.84c-49.904-49.904-121.235-72.308-190.81-59.924
	c-0.522,0.093-1.022,0.238-1.499,0.419c-13.047-2.469-26.501-3.776-40.256-3.776c-4.536,0-8.212,3.676-8.212,8.212
	s3.676,8.212,8.212,8.212c110.076,0,199.629,89.553,199.629,199.629c0,110.075-89.553,199.628-199.629,199.628
	S16.424,359.233,16.424,249.159c0-82.307,49.408-155.145,125.875-185.566c4.214-1.676,6.272-6.453,4.594-10.666
	c-1.675-4.216-6.455-6.27-10.666-4.594c-39.734,15.808-73.636,42.828-98.037,78.14C13.206,162.628,0,205.051,0,249.159
	c0,119.132,96.921,216.052,216.053,216.052c13.629,0,26.963-1.282,39.899-3.707c13.139,2.456,26.487,3.692,39.83,3.692
	c18.821,0,37.629-2.44,55.819-7.276c7.938,12.59,21.96,20.976,37.911,20.976h114.172c4.536,0,8.212-3.676,8.212-8.212
	C511.896,466.147,508.221,462.472,503.686,462.472z M409.163,345.973h49.912v18.755c-0.581,1.72-0.562,3.56,0,5.238v1.582h-65.079
	C399.613,363.407,404.686,354.866,409.163,345.973z M459.075,240.947h-27.139c-0.362-9.64-1.356-19.119-2.945-28.4h30.085V240.947z
	 M431.936,257.371h27.139v29.585h-30.282C430.503,277.3,431.558,267.42,431.936,257.371z M386.908,117.077h0.68
	c25.952,0,48.714,13.904,61.24,34.651h-39.972C402.63,139.46,395.267,127.865,386.908,117.077z M456.089,168.152
	c1.933,6.472,2.986,13.32,2.986,20.413v7.559h-33.562c-2.431-9.595-5.51-18.934-9.179-27.973L456.089,168.152L456.089,168.152z
	 M425.358,302.825c0.916,0.354,1.909,0.554,2.949,0.554h30.768v26.168h-42.488C420.066,320.901,423.01,311.981,425.358,302.825z
	 M298.774,49.58c51.446,0.788,101.22,21.408,138.229,58.42c60.975,60.975,75.253,152.869,38.546,228.278
	c-0.016-0.09-0.032-0.18-0.051-0.268V188.564c0-10.886-2.004-21.309-5.637-30.939c-0.137-0.465-0.316-0.912-0.529-1.339
	c-12.897-32.545-44.666-55.633-81.745-55.633h-14.758C352.142,78.824,326.957,61.304,298.774,49.58z M381.473,387.972h77.602v26.2
	h-97.934v-5.058C368.385,402.536,375.174,395.466,381.473,387.972z M298.771,448.738c16.433-6.836,31.848-15.638,45.945-26.122
	v11.482c0,2.879,0.284,5.691,0.805,8.421C330.249,446.421,314.53,448.506,298.771,448.738z M389.513,462.472
	c-15.645,0-28.373-12.729-28.373-28.374v-3.502h97.934v1.772c-0.119,0.558-0.186,1.137-0.186,1.73
	c0,10.759,3.81,20.643,10.156,28.374H389.513z"/>
</svg>