<?xml version="1.0" encoding="iso-8859-1"?>
<!-- Uploaded to: SVG Repo, www.svgrepo.com, Generator: SVG Repo Mixer Tools -->
<svg height="800px" width="800px" version="1.1" id="Layer_1" xmlns="http://www.w3.org/2000/svg" xmlns:xlink="http://www.w3.org/1999/xlink" 
	 viewBox="0 0 496.4 496.4" xml:space="preserve">
<g>
	<path style="fill:#C6C6C6;" d="M400.8,412.8c-3.2,0-6.4-1.6-8.8-4l-48-48c-4.8-4.8-4.8-12.8,0-17.6c4.8-4.8,12.8-4.8,17.6,0l48,48
		c4.8,4.8,4.8,12.8,0,17.6C407.2,412,404,412.8,400.8,412.8z"/>
	<path style="fill:#C6C6C6;" d="M208,416C93.6,416,0,323.2,0,208C0,93.6,93.6,0,208,0s208,93.6,208,208C416,323.2,323.2,416,208,416
		z M208,33.6C112,33.6,33.6,112,33.6,208c0,96.8,78.4,175.2,174.4,175.2c96.8,0,175.2-78.4,175.2-175.2
		C383.2,112,304.8,33.6,208,33.6z"/>
</g>
<path style="fill:#B5B5B5;" d="M208,0L208,0v32l0,0c96.8,0,175.2,79.2,175.2,176S304.8,384,208,384l0,0v32l0,0
	c114.4,0,208-93.6,208-208S323.2,0,208,0z"/>
<path style="fill:#00A6F9;" d="M488,447.2c11.2,11.2,11.2,28.8,0,40l0,0c-11.2,11.2-28.8,11.2-40,0l-73.6-73.6
	c-11.2-11.2-11.2-28.8,0-40l0,0c11.2-11.2,28.8-11.2,40,0L488,447.2z"/>
<path style="fill:#0086F4;" d="M414.4,374.4L488,448c11.2,11.2,11.2,28.8,0,40l0,0c-11.2,11.2-28.8,11.2-40,0"/>
<path style="fill:#00A6F9;" d="M392.8,208c0,101.6-82.4,184-184,184s-184-82.4-184-184C24,106.4,106.4,24,208,24
	S392.8,106.4,392.8,208z"/>
<path style="fill:#0086F4;" d="M208,24c101.6,0,184,82.4,184,184s-82.4,184-184,184"/>
<path style="fill:#0093F7;" d="M77.6,77.6c72-72,188.8-72,260.8,0s72,188.8,0,260.8"/>
<g>
	<path style="fill:#FFFFFF;" d="M128,184c-4,0-8-3.2-8-8v-42.4c0-4,2.4-5.6,6.4-5.6h42.4c4,0,8,4,8,8s-3.2,8-8,8H136v32
		C136,180.8,132,184,128,184z"/>
	<path style="fill:#FFFFFF;" d="M288,184c-4,0-8-3.2-8-8v-32h-32.8c-4,0-8-4-8-8s3.2-8,8-8h42.4c4,0,6.4,1.6,6.4,5.6V176
		C296,180.8,292,184,288,184z"/>
	<path style="fill:#FFFFFF;" d="M289.6,288h-42.4c-4,0-8-4-8-8s3.2-8,8-8H280v-32c0-4,4-8,8-8s8,3.2,8,8v42.4
		C296,287.2,293.6,288,289.6,288z"/>
	<path style="fill:#FFFFFF;" d="M169.6,288h-42.4c-4,0-6.4-0.8-6.4-5.6V240c0-4,4-8,8-8s8,3.2,8,8v32h33.6c4,0,8,4,8,8
		S173.6,288,169.6,288z"/>
</g>
</svg>