<?xml version="1.0" encoding="iso-8859-1"?>
<!-- Uploaded to: SVG Repo, www.svgrepo.com, Generator: SVG Repo Mixer Tools -->
<svg height="800px" width="800px" version="1.1" id="Layer_1" xmlns="http://www.w3.org/2000/svg" xmlns:xlink="http://www.w3.org/1999/xlink" 
	 viewBox="0 0 512 512" xml:space="preserve">
<circle style="fill:#31BAFD;" cx="256" cy="256" r="256"/>
<path style="fill:#2B9ED8;" d="M511.245,275.797L369.778,134.332L206.583,319.785l-70.087,78.438l113.705,113.705
	c1.929,0.043,3.862,0.072,5.801,0.072C390.723,512,501.138,407.931,511.245,275.797z"/>
<polygon style="fill:#E6F3FF;" points="320.779,85.333 193.384,85.333 193.384,337.325 369.778,337.325 369.778,134.332 "/>
<polygon style="fill:#CFDBE6;" points="369.778,134.332 320.779,85.333 268.643,85.333 268.643,337.325 369.778,337.325 "/>
<polygon style="fill:#B8C9D9;" points="320.779,134.332 369.778,134.332 320.779,85.333 "/>
<polygon style="fill:#B5F1F4;" points="292.335,113.778 164.94,113.778 164.94,365.77 341.333,365.77 341.333,162.776 "/>
<polygon style="fill:#94E0E0;" points="341.333,162.776 292.335,113.778 231.865,113.778 231.865,365.77 341.333,365.77 "/>
<polygon style="fill:#B5F1F4;" points="292.335,162.776 341.333,162.776 292.335,113.778 "/>
<polygon style="fill:#FFFFFF;" points="263.89,146.232 136.495,146.232 136.495,398.222 312.889,398.222 312.889,195.229 "/>
<polygon style="fill:#E6F3FF;" points="312.889,195.229 263.89,146.23 210.604,146.23 210.604,398.222 312.889,398.222 "/>
<polygon style="fill:#CFDBE6;" points="263.89,195.229 312.889,195.229 263.89,146.232 "/>
</svg>