<?xml version="1.0" encoding="utf-8"?>
<!-- Uploaded to: SVG Repo, www.svgrepo.com, Generator: SVG Repo Mixer Tools -->
<svg width="800px" height="800px" viewBox="0 -43.5 1111 1111" class="icon"  version="1.1" xmlns="http://www.w3.org/2000/svg"><path d="M807.497143 256h92.16c56.32 0 102.4 46.08 102.4 102.4v464.457143-32.914286h-87.771429v87.771429h85.577143c-10.24 46.08-51.2 80.457143-100.205714 80.457143h-687.542857c-56.32 0-102.4-46.08-102.4-102.4v-431.542858h87.771428v453.485715h716.8v-541.257143h-802.377143c10.24-46.08 51.2-80.457143 100.205715-80.457143h92.16l34.377143-106.788571c14.628571-46.08 66.56-83.382857 114.834285-82.651429l215.771429 2.194286c48.274286 0.731429 98.011429 38.765714 110.445714 85.577143l27.794286 101.668571z m-382.537143-102.4l264.777143 2.925714 49.005714 179.931429h-373.028571l59.245714-182.857143z" fill="#0C92F3" /><path d="M563.2 570.514286m-80.457143 0a80.457143 80.457143 0 1 0 160.914286 0 80.457143 80.457143 0 1 0-160.914286 0Z" fill="#A8C8E6" /><path d="M563.2 650.971429c24.868571 0 46.811429-10.971429 61.44-28.525715-135.314286-47.542857-5.12-2.194286-141.897143-51.931428 0 44.617143 35.84 80.457143 80.457143 80.457143z" fill="#61B6F2" /><path d="M634.88 607.085714c5.851429-10.971429 8.777143-23.405714 8.777143-36.571428 0-44.617143-35.84-80.457143-80.457143-80.457143 71.68 117.028571 2.194286 3.657143 71.68 117.028571z" fill="#FC830A" /><path d="M819.2 566.857143c0-143.36-116.297143-259.657143-259.657143-259.657143s-259.657143 116.297143-259.657143 259.657143 116.297143 259.657143 259.657143 259.657143 259.657143-116.297143 259.657143-259.657143z m-431.542857 0c0-95.085714 76.8-171.885714 171.885714-171.885714s171.885714 76.8 171.885714 171.885714-76.8 171.885714-171.885714 171.885714-171.885714-76.8-171.885714-171.885714z" fill="#0C92F3" /><path d="M738.742857 338.651429h-372.297143l58.514286-185.051429h262.582857z" fill="#FFFFFF" /></svg>