<svg xmlns="http://www.w3.org/2000/svg" version="1.1" xmlns:xlink="http://www.w3.org/1999/xlink" xmlns:svgjs="http://svgjs.com/svgjs" width="1440" height="5000" preserveAspectRatio="none" viewBox="0 0 1440 5000"><g mask="url(&quot;#SvgjsMask1113&quot;)" fill="none"><rect width="1440" height="5000" x="0" y="0" fill="url(#SvgjsLinearGradient1114)"></rect><path d="M 1130,-1326.1414472043853 C 1027.8,-1159.34 676,-825.74 619,-492.1414472043853 C 562,-158.54 875.2,8.26 845,341.8585527956147 C 814.8,675.46 392.8,842.26 468,1175.8585527956147 C 543.2,1509.46 1272,1676.26 1221,2009.8585527956147 C 1170,2343.46 312.2,2510.26 213,2843.8585527956147 C 113.8,3177.46 631,3344.26 725,3677.8585527956147 C 819,4011.46 632.2,4247.43 683,4511.858552795615 C 733.8,4776.29 919.8,4902.37 979,5000" stroke="rgba(243, 10, 150, 0.96)" stroke-width="2"></path><path d="M 42,-611.9729705318883 C 229.2,-445.17 908,-111.57 978,222.02702946811164 C 1048,555.63 390,722.43 392,1056.0270294681116 C 394,1389.63 1030.6,1556.43 988,1890.0270294681116 C 945.4,2223.63 101.6,2390.43 179,2724.027029468112 C 256.4,3057.63 1292.2,3224.43 1375,3558.027029468112 C 1457.8,3891.63 646.2,4058.43 593,4392.027029468111 C 539.8,4725.63 1121.6,5104.43 1109,5226.027029468111 C 1096.4,5347.62 645.8,5045.21 530,5000" stroke="rgba(243, 10, 150, 0.96)" stroke-width="2"></path><path d="M 1329,-102.08074656577958 C 1168.2,64.72 562.2,398.32 525,731.9192534342204 C 487.8,1065.52 1206,1232.32 1143,1565.9192534342205 C 1080,1899.52 211.4,2066.32 210,2399.9192534342205 C 208.6,2733.52 1039.8,2900.32 1136,3233.9192534342205 C 1232.2,3567.52 668.6,3734.32 691,4067.9192534342205 C 713.4,4401.52 1242.6,4568.32 1248,4901.91925343422 C 1253.4,5235.52 684,5716.3 718,5735.91925343422 C 752,5755.54 1278,5147.18 1418,5000" stroke="rgba(243, 10, 150, 0.96)" stroke-width="2"></path><path d="M 1009,-1319.8975319542817 C 929.2,-1153.1 541.2,-819.5 610,-485.8975319542817 C 678.8,-152.3 1442.8,14.5 1353,348.1024680457183 C 1263.2,681.7 246,848.5 161,1182.1024680457183 C 76,1515.7 826,1682.5 928,2016.1024680457183 C 1030,2349.7 589,2516.5 671,2850.1024680457185 C 753,3183.7 1361.2,3350.5 1338,3684.1024680457185 C 1314.8,4017.7 591,4254.92 555,4518.1024680457185 C 519,4781.28 1037.4,4903.62 1158,5000" stroke="rgba(243, 10, 150, 0.96)" stroke-width="2"></path><path d="M 149,-291.7436542178134 C 388.4,-124.94 1249.6,208.66 1346,542.2563457821866 C 1442.4,875.86 728,1042.66 631,1376.2563457821866 C 534,1709.86 897.2,1876.66 861,2210.2563457821866 C 824.8,2543.86 439,2710.66 450,3044.2563457821866 C 461,3377.86 918,3544.66 916,3878.2563457821866 C 914,4211.86 355.2,4378.66 440,4712.256345782187 C 524.8,5045.86 1346.4,5488.71 1340,5546.256345782187 C 1333.6,5603.81 594.4,5109.25 408,5000" stroke="rgba(243, 10, 150, 0.96)" stroke-width="2"></path><path d="M 258,-815.9193745664904 C 453.4,-649.12 1262.6,-315.52 1235,18.08062543350957 C 1207.4,351.68 85.8,518.48 120,852.0806254335096 C 154.2,1185.68 1423.2,1352.48 1406,1686.0806254335096 C 1388.8,2019.68 46.6,2186.48 34,2520.08062543351 C 21.4,2853.68 1209,3020.48 1343,3354.08062543351 C 1477,3687.68 709.2,3854.48 704,4188.080625433509 C 698.8,4521.68 1373.8,4859.7 1317,5022.080625433509 C 1260.2,5184.46 599.4,5004.42 420,5000" stroke="rgba(243, 10, 150, 0.96)" stroke-width="2"></path></g><defs><mask id="SvgjsMask1113"><rect width="1440" height="5000" fill="#ffffff"></rect></mask><linearGradient x1="100%" y1="50%" x2="0%" y2="50%" gradientUnits="userSpaceOnUse" id="SvgjsLinearGradient1114"><stop stop-color="#0e2a47" offset="0"></stop><stop stop-color="rgba(83, 43, 119, 0.95)" offset="1"></stop></linearGradient></defs></svg>