<svg xmlns="http://www.w3.org/2000/svg" version="1.1" xmlns:xlink="http://www.w3.org/1999/xlink" xmlns:svgjs="http://svgjs.com/svgjs" width="1440" height="5000" preserveAspectRatio="none" viewBox="0 0 1440 5000"><g mask="url(&quot;#SvgjsMask1613&quot;)" fill="none"><rect width="1440" height="5000" x="0" y="0" fill="url(#SvgjsLinearGradient1614)"></rect><use xlink:href="#SvgjsSymbol1621" x="0" y="0"></use><use xlink:href="#SvgjsSymbol1621" x="0" y="720"></use><use xlink:href="#SvgjsSymbol1621" x="0" y="1440"></use><use xlink:href="#SvgjsSymbol1621" x="0" y="2160"></use><use xlink:href="#SvgjsSymbol1621" x="0" y="2880"></use><use xlink:href="#SvgjsSymbol1621" x="0" y="3600"></use><use xlink:href="#SvgjsSymbol1621" x="0" y="4320"></use><use xlink:href="#SvgjsSymbol1621" x="720" y="0"></use><use xlink:href="#SvgjsSymbol1621" x="720" y="720"></use><use xlink:href="#SvgjsSymbol1621" x="720" y="1440"></use><use xlink:href="#SvgjsSymbol1621" x="720" y="2160"></use><use xlink:href="#SvgjsSymbol1621" x="720" y="2880"></use><use xlink:href="#SvgjsSymbol1621" x="720" y="3600"></use><use xlink:href="#SvgjsSymbol1621" x="720" y="4320"></use></g><defs><mask id="SvgjsMask1613"><rect width="1440" height="5000" fill="#ffffff"></rect></mask><linearGradient x1="-61.81%" y1="17.8%" x2="161.81%" y2="82.2%" gradientUnits="userSpaceOnUse" id="SvgjsLinearGradient1614"><stop stop-color="#0e2a47" offset="0"></stop><stop stop-color="rgba(151, 66, 193, 1)" offset="1"></stop></linearGradient><path d="M-1 0 a1 1 0 1 0 2 0 a1 1 0 1 0 -2 0z" id="SvgjsPath1620"></path><path d="M-3 0 a3 3 0 1 0 6 0 a3 3 0 1 0 -6 0z" id="SvgjsPath1618"></path><path d="M-5 0 a5 5 0 1 0 10 0 a5 5 0 1 0 -10 0z" id="SvgjsPath1616"></path><path d="M2 -2 L-2 2z" id="SvgjsPath1619"></path><path d="M6 -6 L-6 6z" id="SvgjsPath1615"></path><path d="M30 -30 L-30 30z" id="SvgjsPath1617"></path></defs><symbol id="SvgjsSymbol1621"><use xlink:href="#SvgjsPath1615" x="30" y="30" stroke="rgba(232, 15, 15, 1)"></use><use xlink:href="#SvgjsPath1615" x="30" y="90" stroke="rgba(232, 15, 15, 1)"></use><use xlink:href="#SvgjsPath1616" x="30" y="150" stroke="rgba(232, 15, 15, 1)"></use><use xlink:href="#SvgjsPath1616" x="30" y="210" stroke="rgba(232, 15, 15, 1)"></use><use xlink:href="#SvgjsPath1616" x="30" y="270" stroke="rgba(232, 15, 15, 1)"></use><use xlink:href="#SvgjsPath1615" x="30" y="330" stroke="rgba(232, 15, 15, 1)"></use><use xlink:href="#SvgjsPath1617" x="30" y="390" stroke="rgba(232, 15, 15, 1)" stroke-width="3"></use><use xlink:href="#SvgjsPath1615" x="30" y="450" stroke="rgba(232, 15, 15, 1)"></use><use xlink:href="#SvgjsPath1615" x="30" y="510" stroke="rgba(232, 15, 15, 1)"></use><use xlink:href="#SvgjsPath1616" x="30" y="570" stroke="rgba(232, 15, 15, 1)"></use><use xlink:href="#SvgjsPath1618" x="30" y="630" stroke="rgba(232, 15, 15, 1)"></use><use xlink:href="#SvgjsPath1616" x="30" y="690" stroke="rgba(232, 15, 15, 1)"></use><use xlink:href="#SvgjsPath1619" x="90" y="30" stroke="rgba(232, 15, 15, 1)"></use><use xlink:href="#SvgjsPath1615" x="90" y="90" stroke="rgba(232, 15, 15, 1)"></use><use xlink:href="#SvgjsPath1616" x="90" y="150" stroke="rgba(232, 15, 15, 1)"></use><use xlink:href="#SvgjsPath1615" x="90" y="210" stroke="rgba(232, 15, 15, 1)"></use><use xlink:href="#SvgjsPath1619" x="90" y="270" stroke="rgba(232, 15, 15, 1)"></use><use xlink:href="#SvgjsPath1616" x="90" y="330" stroke="rgba(232, 15, 15, 1)"></use><use xlink:href="#SvgjsPath1615" x="90" y="390" stroke="rgba(232, 15, 15, 1)"></use><use xlink:href="#SvgjsPath1620" x="90" y="450" stroke="rgba(232, 15, 15, 1)"></use><use xlink:href="#SvgjsPath1616" x="90" y="510" stroke="rgba(232, 15, 15, 1)"></use><use xlink:href="#SvgjsPath1617" x="90" y="570" stroke="rgba(232, 15, 15, 1)" stroke-width="3"></use><use xlink:href="#SvgjsPath1615" x="90" y="630" stroke="rgba(232, 15, 15, 1)"></use><use xlink:href="#SvgjsPath1615" x="90" y="690" stroke="rgba(232, 15, 15, 1)"></use><use xlink:href="#SvgjsPath1615" x="150" y="30" stroke="rgba(232, 15, 15, 1)"></use><use xlink:href="#SvgjsPath1618" x="150" y="90" stroke="rgba(232, 15, 15, 1)"></use><use xlink:href="#SvgjsPath1616" x="150" y="150" stroke="rgba(232, 15, 15, 1)"></use><use xlink:href="#SvgjsPath1619" x="150" y="210" stroke="rgba(232, 15, 15, 1)"></use><use xlink:href="#SvgjsPath1616" x="150" y="270" stroke="rgba(232, 15, 15, 1)"></use><use xlink:href="#SvgjsPath1615" x="150" y="330" stroke="rgba(232, 15, 15, 1)"></use><use xlink:href="#SvgjsPath1619" x="150" y="390" stroke="rgba(232, 15, 15, 1)"></use><use xlink:href="#SvgjsPath1615" x="150" y="450" stroke="rgba(232, 15, 15, 1)"></use><use xlink:href="#SvgjsPath1615" x="150" y="510" stroke="rgba(232, 15, 15, 1)"></use><use xlink:href="#SvgjsPath1618" x="150" y="570" stroke="rgba(232, 15, 15, 1)"></use><use xlink:href="#SvgjsPath1620" x="150" y="630" stroke="rgba(232, 15, 15, 1)"></use><use xlink:href="#SvgjsPath1615" x="150" y="690" stroke="rgba(232, 15, 15, 1)"></use><use xlink:href="#SvgjsPath1615" x="210" y="30" stroke="rgba(232, 15, 15, 1)"></use><use xlink:href="#SvgjsPath1615" x="210" y="90" stroke="rgba(232, 15, 15, 1)"></use><use xlink:href="#SvgjsPath1615" x="210" y="150" stroke="rgba(232, 15, 15, 1)"></use><use xlink:href="#SvgjsPath1616" x="210" y="210" stroke="rgba(232, 15, 15, 1)"></use><use xlink:href="#SvgjsPath1616" x="210" y="270" stroke="rgba(232, 15, 15, 1)"></use><use xlink:href="#SvgjsPath1619" x="210" y="330" stroke="rgba(232, 15, 15, 1)"></use><use xlink:href="#SvgjsPath1620" x="210" y="390" stroke="rgba(232, 15, 15, 1)"></use><use xlink:href="#SvgjsPath1615" x="210" y="450" stroke="rgba(232, 15, 15, 1)"></use><use xlink:href="#SvgjsPath1615" x="210" y="510" stroke="rgba(232, 15, 15, 1)"></use><use xlink:href="#SvgjsPath1615" x="210" y="570" stroke="rgba(232, 15, 15, 1)"></use><use xlink:href="#SvgjsPath1617" x="210" y="630" stroke="rgba(232, 15, 15, 1)" stroke-width="3"></use><use xlink:href="#SvgjsPath1616" x="210" y="690" stroke="rgba(232, 15, 15, 1)"></use><use xlink:href="#SvgjsPath1615" x="270" y="30" stroke="rgba(232, 15, 15, 1)"></use><use xlink:href="#SvgjsPath1616" x="270" y="90" stroke="rgba(232, 15, 15, 1)"></use><use xlink:href="#SvgjsPath1617" x="270" y="150" stroke="rgba(232, 15, 15, 1)" stroke-width="3"></use><use xlink:href="#SvgjsPath1615" x="270" y="210" stroke="rgba(232, 15, 15, 1)"></use><use xlink:href="#SvgjsPath1615" x="270" y="270" stroke="rgba(232, 15, 15, 1)"></use><use xlink:href="#SvgjsPath1620" x="270" y="330" stroke="rgba(232, 15, 15, 1)"></use><use xlink:href="#SvgjsPath1615" x="270" y="390" stroke="rgba(232, 15, 15, 1)"></use><use xlink:href="#SvgjsPath1619" x="270" y="450" stroke="rgba(232, 15, 15, 1)"></use><use xlink:href="#SvgjsPath1619" x="270" y="510" stroke="rgba(232, 15, 15, 1)"></use><use xlink:href="#SvgjsPath1615" x="270" y="570" stroke="rgba(232, 15, 15, 1)"></use><use xlink:href="#SvgjsPath1619" x="270" y="630" stroke="rgba(232, 15, 15, 1)"></use><use xlink:href="#SvgjsPath1615" x="270" y="690" stroke="rgba(232, 15, 15, 1)"></use><use xlink:href="#SvgjsPath1616" x="330" y="30" stroke="rgba(232, 15, 15, 1)"></use><use xlink:href="#SvgjsPath1616" x="330" y="90" stroke="rgba(232, 15, 15, 1)"></use><use xlink:href="#SvgjsPath1617" x="330" y="150" stroke="rgba(232, 15, 15, 1)" stroke-width="3"></use><use xlink:href="#SvgjsPath1620" x="330" y="210" stroke="rgba(232, 15, 15, 1)"></use><use xlink:href="#SvgjsPath1615" x="330" y="270" stroke="rgba(232, 15, 15, 1)"></use><use xlink:href="#SvgjsPath1615" x="330" y="330" stroke="rgba(232, 15, 15, 1)"></use><use xlink:href="#SvgjsPath1616" x="330" y="390" stroke="rgba(232, 15, 15, 1)"></use><use xlink:href="#SvgjsPath1616" x="330" y="450" stroke="rgba(232, 15, 15, 1)"></use><use xlink:href="#SvgjsPath1618" x="330" y="510" stroke="rgba(232, 15, 15, 1)"></use><use xlink:href="#SvgjsPath1615" x="330" y="570" stroke="rgba(232, 15, 15, 1)"></use><use xlink:href="#SvgjsPath1615" x="330" y="630" stroke="rgba(232, 15, 15, 1)"></use><use xlink:href="#SvgjsPath1619" x="330" y="690" stroke="rgba(232, 15, 15, 1)"></use><use xlink:href="#SvgjsPath1615" x="390" y="30" stroke="rgba(232, 15, 15, 1)"></use><use xlink:href="#SvgjsPath1619" x="390" y="90" stroke="rgba(232, 15, 15, 1)"></use><use xlink:href="#SvgjsPath1615" x="390" y="150" stroke="rgba(232, 15, 15, 1)"></use><use xlink:href="#SvgjsPath1619" x="390" y="210" stroke="rgba(232, 15, 15, 1)"></use><use xlink:href="#SvgjsPath1619" x="390" y="270" stroke="rgba(232, 15, 15, 1)"></use><use xlink:href="#SvgjsPath1620" x="390" y="330" stroke="rgba(232, 15, 15, 1)"></use><use xlink:href="#SvgjsPath1618" x="390" y="390" stroke="rgba(232, 15, 15, 1)"></use><use xlink:href="#SvgjsPath1620" x="390" y="450" stroke="rgba(232, 15, 15, 1)"></use><use xlink:href="#SvgjsPath1615" x="390" y="510" stroke="rgba(232, 15, 15, 1)"></use><use xlink:href="#SvgjsPath1620" x="390" y="570" stroke="rgba(232, 15, 15, 1)"></use><use xlink:href="#SvgjsPath1615" x="390" y="630" stroke="rgba(232, 15, 15, 1)"></use><use xlink:href="#SvgjsPath1615" x="390" y="690" stroke="rgba(232, 15, 15, 1)"></use><use xlink:href="#SvgjsPath1618" x="450" y="30" stroke="rgba(232, 15, 15, 1)"></use><use xlink:href="#SvgjsPath1618" x="450" y="90" stroke="rgba(232, 15, 15, 1)"></use><use xlink:href="#SvgjsPath1619" x="450" y="150" stroke="rgba(232, 15, 15, 1)"></use><use xlink:href="#SvgjsPath1619" x="450" y="210" stroke="rgba(232, 15, 15, 1)"></use><use xlink:href="#SvgjsPath1616" x="450" y="270" stroke="rgba(232, 15, 15, 1)"></use><use xlink:href="#SvgjsPath1620" x="450" y="330" stroke="rgba(232, 15, 15, 1)"></use><use xlink:href="#SvgjsPath1615" x="450" y="390" stroke="rgba(232, 15, 15, 1)"></use><use xlink:href="#SvgjsPath1615" x="450" y="450" stroke="rgba(232, 15, 15, 1)"></use><use xlink:href="#SvgjsPath1619" x="450" y="510" stroke="rgba(232, 15, 15, 1)"></use><use xlink:href="#SvgjsPath1616" x="450" y="570" stroke="rgba(232, 15, 15, 1)"></use><use xlink:href="#SvgjsPath1616" x="450" y="630" stroke="rgba(232, 15, 15, 1)"></use><use xlink:href="#SvgjsPath1616" x="450" y="690" stroke="rgba(232, 15, 15, 1)"></use><use xlink:href="#SvgjsPath1616" x="510" y="30" stroke="rgba(232, 15, 15, 1)"></use><use xlink:href="#SvgjsPath1615" x="510" y="90" stroke="rgba(232, 15, 15, 1)"></use><use xlink:href="#SvgjsPath1615" x="510" y="150" stroke="rgba(232, 15, 15, 1)"></use><use xlink:href="#SvgjsPath1616" x="510" y="210" stroke="rgba(232, 15, 15, 1)"></use><use xlink:href="#SvgjsPath1617" x="510" y="270" stroke="rgba(232, 15, 15, 1)" stroke-width="3"></use><use xlink:href="#SvgjsPath1616" x="510" y="330" stroke="rgba(232, 15, 15, 1)"></use><use xlink:href="#SvgjsPath1615" x="510" y="390" stroke="rgba(232, 15, 15, 1)"></use><use xlink:href="#SvgjsPath1615" x="510" y="450" stroke="rgba(232, 15, 15, 1)"></use><use xlink:href="#SvgjsPath1615" x="510" y="510" stroke="rgba(232, 15, 15, 1)"></use><use xlink:href="#SvgjsPath1615" x="510" y="570" stroke="rgba(232, 15, 15, 1)"></use><use xlink:href="#SvgjsPath1619" x="510" y="630" stroke="rgba(232, 15, 15, 1)"></use><use xlink:href="#SvgjsPath1619" x="510" y="690" stroke="rgba(232, 15, 15, 1)"></use><use xlink:href="#SvgjsPath1616" x="570" y="30" stroke="rgba(232, 15, 15, 1)"></use><use xlink:href="#SvgjsPath1615" x="570" y="90" stroke="rgba(232, 15, 15, 1)"></use><use xlink:href="#SvgjsPath1616" x="570" y="150" stroke="rgba(232, 15, 15, 1)"></use><use xlink:href="#SvgjsPath1615" x="570" y="210" stroke="rgba(232, 15, 15, 1)"></use><use xlink:href="#SvgjsPath1619" x="570" y="270" stroke="rgba(232, 15, 15, 1)"></use><use xlink:href="#SvgjsPath1616" x="570" y="330" stroke="rgba(232, 15, 15, 1)"></use><use xlink:href="#SvgjsPath1616" x="570" y="390" stroke="rgba(232, 15, 15, 1)"></use><use xlink:href="#SvgjsPath1618" x="570" y="450" stroke="rgba(232, 15, 15, 1)"></use><use xlink:href="#SvgjsPath1620" x="570" y="510" stroke="rgba(232, 15, 15, 1)"></use><use xlink:href="#SvgjsPath1615" x="570" y="570" stroke="rgba(232, 15, 15, 1)"></use><use xlink:href="#SvgjsPath1618" x="570" y="630" stroke="rgba(232, 15, 15, 1)"></use><use xlink:href="#SvgjsPath1618" x="570" y="690" stroke="rgba(232, 15, 15, 1)"></use><use xlink:href="#SvgjsPath1618" x="630" y="30" stroke="rgba(232, 15, 15, 1)"></use><use xlink:href="#SvgjsPath1615" x="630" y="90" stroke="rgba(232, 15, 15, 1)"></use><use xlink:href="#SvgjsPath1620" x="630" y="150" stroke="rgba(232, 15, 15, 1)"></use><use xlink:href="#SvgjsPath1616" x="630" y="210" stroke="rgba(232, 15, 15, 1)"></use><use xlink:href="#SvgjsPath1616" x="630" y="270" stroke="rgba(232, 15, 15, 1)"></use><use xlink:href="#SvgjsPath1616" x="630" y="330" stroke="rgba(232, 15, 15, 1)"></use><use xlink:href="#SvgjsPath1618" x="630" y="390" stroke="rgba(232, 15, 15, 1)"></use><use xlink:href="#SvgjsPath1620" x="630" y="450" stroke="rgba(232, 15, 15, 1)"></use><use xlink:href="#SvgjsPath1619" x="630" y="510" stroke="rgba(232, 15, 15, 1)"></use><use xlink:href="#SvgjsPath1615" x="630" y="570" stroke="rgba(232, 15, 15, 1)"></use><use xlink:href="#SvgjsPath1620" x="630" y="630" stroke="rgba(232, 15, 15, 1)"></use><use xlink:href="#SvgjsPath1620" x="630" y="690" stroke="rgba(232, 15, 15, 1)"></use><use xlink:href="#SvgjsPath1615" x="690" y="30" stroke="rgba(232, 15, 15, 1)"></use><use xlink:href="#SvgjsPath1616" x="690" y="90" stroke="rgba(232, 15, 15, 1)"></use><use xlink:href="#SvgjsPath1616" x="690" y="150" stroke="rgba(232, 15, 15, 1)"></use><use xlink:href="#SvgjsPath1615" x="690" y="210" stroke="rgba(232, 15, 15, 1)"></use><use xlink:href="#SvgjsPath1619" x="690" y="270" stroke="rgba(232, 15, 15, 1)"></use><use xlink:href="#SvgjsPath1619" x="690" y="330" stroke="rgba(232, 15, 15, 1)"></use><use xlink:href="#SvgjsPath1615" x="690" y="390" stroke="rgba(232, 15, 15, 1)"></use><use xlink:href="#SvgjsPath1618" x="690" y="450" stroke="rgba(232, 15, 15, 1)"></use><use xlink:href="#SvgjsPath1620" x="690" y="510" stroke="rgba(232, 15, 15, 1)"></use><use xlink:href="#SvgjsPath1615" x="690" y="570" stroke="rgba(232, 15, 15, 1)"></use><use xlink:href="#SvgjsPath1615" x="690" y="630" stroke="rgba(232, 15, 15, 1)"></use><use xlink:href="#SvgjsPath1616" x="690" y="690" stroke="rgba(232, 15, 15, 1)"></use></symbol></svg>